<?xml version="1.0" encoding="iso-8859-1"?>
<!-- Generator: Adobe Illustrator 18.0.0, SVG Export Plug-In . SVG Version: 6.00 Build 0)  -->
<!DOCTYPE svg PUBLIC "-//W3C//DTD SVG 1.1//EN" "http://www.w3.org/Graphics/SVG/1.1/DTD/svg11.dtd">
<svg xmlns="http://www.w3.org/2000/svg" xmlns:xlink="http://www.w3.org/1999/xlink" version="1.1" id="Capa_1" x="0px" y="0px" viewBox="0 0 487.313 487.313" style="enable-background:new 0 0 487.313 487.313;" xml:space="preserve" width="512px" height="512px">
<g>
	<polygon points="150.215,284.105 133.827,300.478 116.999,362.057 124.279,369.339 185.841,352.493 245.962,292.371  " fill="#FFFFFF"/>
	<path d="M467.156,19.18C454.863,6.9,438.222,0,420.854,0c-17.37,0-34.027,6.885-46.305,19.162l-30.539,30.522l-2.506-2.509   c-19.815-19.812-51.951-19.812-71.779,0c-9.519,9.535-14.865,22.432-14.865,35.899c0,9.44,2.765,18.528,7.617,26.443   L94.757,277.235c-2,2.002-3.444,4.477-4.188,7.202l-29.568,108.14c-1.541,5.633,0.063,11.645,4.186,15.768l12.787,12.787   c3.094,3.093,7.232,4.76,11.485,4.76c1.427,0,2.868-0.189,4.282-0.574l108.14-29.568c2.728-0.745,5.202-2.188,7.2-4.185   l167.688-167.69c19.56,12.01,45.432,9.662,62.373-7.266c9.52-9.532,14.865-22.43,14.865-35.898   c0-13.466-5.346-26.379-14.865-35.896l-2.52-2.524l30.521-30.504C492.716,86.216,492.716,44.748,467.156,19.18z M189.158,365.547   l-94.116,25.73l25.731-94.117l163.561-163.562l68.401,68.368L189.158,365.547z" fill="#FFFFFF"/>
	<path d="M73.388,442.134c-39.975,0-72.399,10.12-72.399,22.59c0,12.467,32.425,22.589,72.399,22.589   c39.99,0,72.419-10.122,72.419-22.589C145.807,452.254,113.378,442.134,73.388,442.134z" fill="#FFFFFF"/>
</g>
<g>
</g>
<g>
</g>
<g>
</g>
<g>
</g>
<g>
</g>
<g>
</g>
<g>
</g>
<g>
</g>
<g>
</g>
<g>
</g>
<g>
</g>
<g>
</g>
<g>
</g>
<g>
</g>
<g>
</g>
</svg>
