<?xml version="1.0" encoding="iso-8859-1"?>
<!DOCTYPE svg PUBLIC "-//W3C//DTD SVG 1.1//EN" "http://www.w3.org/Graphics/SVG/1.1/DTD/svg11.dtd">
<svg xmlns="http://www.w3.org/2000/svg" xmlns:xlink="http://www.w3.org/1999/xlink" version="1.1" id="Capa_1" x="0px" y="0px" width="512px" height="512px" viewBox="0 0 388.588 388.588" style="enable-background:new 0 0 388.588 388.588;" xml:space="preserve">

<g>
	<g>
		<g id="Layer_5_89_">
			<path d="M194.294,4.607c-12.008,23.937-21.645,38.249-40.896,63.881C114.531,120.232,45.802,175.686,45.802,240.096     c0,82.011,66.482,148.492,148.492,148.492c82.01,0,148.492-66.481,148.492-148.492C342.786,141.042,211.784-30.259,194.294,4.607     z M179.478,358.77c-5.521,0-10-4.478-10-10c0-5.521,4.479-10,10-10c63.021,0,114.292-51.271,114.292-114.291     c0-5.521,4.479-10,10-10s10,4.479,10,10C313.771,298.525,253.526,358.77,179.478,358.77z" fill="#FFFFFF"/>
		</g>
	</g>
</g>

</svg>
